<?xml version="1.0" standalone="no"?>
<!DOCTYPE svg PUBLIC "-//W3C//DTD SVG 20010904//EN"
 "http://www.w3.org/TR/2001/REC-SVG-20010904/DTD/svg10.dtd">
<svg version="1.0" xmlns="http://www.w3.org/2000/svg"
 width="120.000000pt" height="154.000000pt" viewBox="0 0 120.000000 154.000000"
 preserveAspectRatio="xMidYMid meet">

<g transform="translate(0.000000,154.000000) scale(0.100000,-0.100000)"
fill="#000000" stroke="none">
<path d="M467 1394 c-83 -52 -103 -92 -111 -224 -8 -142 4 -187 52 -181 18 3
32 -42 32 -101 0 -39 -6 -59 -25 -84 -32 -42 -97 -80 -150 -89 -87 -15 -155
-38 -189 -67 l-36 -29 0 -258 c0 -246 1 -260 21 -285 15 -20 29 -26 58 -26 33
0 38 4 50 35 14 40 26 39 34 -5 6 -29 9 -30 59 -30 115 0 339 22 450 45 159
32 254 77 295 138 29 45 70 172 92 292 7 33 14 70 16 82 7 31 -61 69 -184 105
-140 40 -187 83 -185 166 2 66 14 112 29 112 27 0 37 32 41 127 5 129 -11 184
-68 239 -59 57 -96 74 -165 74 -50 0 -67 -5 -116 -36z m-153 -775 c14 -11 26
-28 26 -38 0 -27 -29 -61 -52 -61 -54 0 -79 74 -36 104 29 20 30 20 62 -5z
m-152 -20 c20 -35 38 -32 30 6 -2 15 0 25 7 25 7 0 11 -21 11 -55 0 -30 -4
-55 -9 -55 -5 0 -20 17 -33 38 l-23 37 -3 -37 c-5 -58 -22 -45 -22 17 0 63 15
72 42 24z m32 -162 c24 -58 28 -77 17 -77 -6 0 -11 7 -11 15 0 21 -47 19 -59
-2 -16 -30 -22 -8 -8 28 8 19 17 42 20 52 10 26 25 20 41 -16z m50 -4 c17 -48
24 -49 37 -4 7 23 16 41 21 41 10 0 4 -24 -18 -77 -7 -18 -18 -33 -23 -33 -6
0 -11 2 -11 5 0 2 -9 27 -20 56 -13 32 -16 49 -8 47 6 -2 16 -18 22 -35z m143
-18 c11 -30 17 -55 12 -55 -5 0 -12 7 -15 15 -8 21 -51 19 -63 -2 -5 -10 -12
-16 -14 -13 -8 9 35 110 47 110 6 0 21 -25 33 -55z m86 48 c-20 -4 -23 -11
-23 -54 0 -27 -4 -49 -10 -49 -5 0 -10 22 -10 49 0 39 -4 51 -17 54 -10 3 5 5
32 4 28 0 40 -2 28 -4z m86 -45 c20 -49 20 -82 0 -45 -12 21 -59 23 -59 2 0
-8 -4 -15 -10 -15 -5 0 -10 4 -10 9 0 18 40 101 48 101 5 0 19 -23 31 -52z
m118 36 c3 -9 2 -24 -4 -33 -7 -11 -6 -22 5 -38 9 -14 10 -23 3 -23 -6 0 -18
11 -27 25 -9 14 -23 25 -30 25 -8 0 -14 -10 -14 -25 0 -14 -4 -25 -10 -25 -5
0 -10 25 -10 55 l0 55 40 0 c28 0 43 -5 47 -16z"/>
<path d="M263 613 c-7 -2 -13 -17 -13 -33 0 -35 18 -50 48 -39 24 9 30 47 10
67 -13 13 -24 14 -45 5z"/>
<path d="M160 425 c0 -8 5 -15 10 -15 6 0 10 7 10 15 0 8 -4 15 -10 15 -5 0
-10 -7 -10 -15z"/>
<path d="M347 435 c-8 -20 -4 -29 11 -24 5 2 6 13 2 23 -6 19 -7 19 -13 1z"/>
<path d="M517 431 c-3 -14 0 -21 9 -21 16 0 18 9 5 28 -6 10 -10 9 -14 -7z"/>
<path d="M610 440 c0 -21 16 -26 39 -11 18 11 5 31 -20 31 -12 0 -19 -7 -19
-20z"/>
<path d="M1116 505 c-3 -9 -6 -22 -5 -28 0 -7 5 -1 10 12 5 13 8 26 5 28 -2 2
-6 -3 -10 -12z"/>
<path d="M1090 398 c-41 -163 -92 -228 -217 -276 -44 -17 -109 -36 -146 -43
-37 -7 -65 -14 -63 -17 6 -5 145 18 171 28 11 5 45 19 75 31 65 27 110 58 110
76 0 7 4 13 8 13 9 0 43 65 60 115 12 36 24 115 18 115 -3 0 -10 -19 -16 -42z"/>
</g>
</svg>
